# xmcd
#
# Track frame offsets:
#	150
#	13585
#	30529
#	43758
#	57372
#	72783
#	97767
#	112096
#	129918
#	143978
#	161433
#	178501
#	195932
#	210200
#	226461
#	237052
#
# Disc length: 3374 seconds
#
# Revision: 1
# Processed by: cddbd v1.5.2PL0 Copyright (c) Steve Scherf et al.
# Submitted via: audiograbber 1.83.01
#
DISCID=c70d2c10
DTITLE=The Strypes - Little Victories
DYEAR=2014
DGENRE=R&B
TTITLE0=Get Into It
TTITLE1=I Need To Be Your Only
TTITLE2=A Good Night's Sleep And A Cab Fare Home
TTITLE3=Eighty-Four
TTITLE4=Queen Of The Half Crown
TTITLE5=(I Wanna Be Your) Everyday
TTITLE6=Best Man
TTITLE7=Three Streets And A Village Green
TTITLE8=Now She's Gone
TTITLE9=Cruel Brunette
TTITLE10=Status Update
TTITLE11=Scumbag City
TTITLE12=Fill The Spaces In
TTITLE13=Lovers Leave
TTITLE14=Rejection
TTITLE15=G O V
EXTD=
EXTT0=
EXTT1=
EXTT2=
EXTT3=
EXTT4=
EXTT5=
EXTT6=
EXTT7=
EXTT8=
EXTT9=
EXTT10=
EXTT11=
EXTT12=
EXTT13=
EXTT14=
EXTT15=
PLAYORDER=
